{
	"asset":{
		"generator":"Khronos glTF Blender I/O v5.0.21",
		"version":"2.0"
	},
	"scene":0,
	"scenes":[
		{
			"name":"Scene",
			"nodes":[
				0
			]
		}
	],
	"nodes":[
		{
			"mesh":0,
			"name":"Chair"
		}
	],
	"materials":[
		{
			"doubleSided":true,
			"name":"Chair",
			"pbrMetallicRoughness":{
				"baseColorTexture":{
					"index":0
				},
				"metallicFactor":0,
				"roughnessFactor":0.7136363387107849
			}
		},
		{
			"doubleSided":true,
			"name":"Pillow_02",
			"pbrMetallicRoughness":{
				"baseColorTexture":{
					"index":1
				},
				"metallicFactor":0,
				"roughnessFactor":0.531818151473999
			}
		},
		{
			"doubleSided":true,
			"name":"Pillow_01",
			"pbrMetallicRoughness":{
				"baseColorTexture":{
					"index":2
				},
				"metallicFactor":0,
				"roughnessFactor":0.5
			}
		}
	],
	"meshes":[
		{
			"name":"Circle.001",
			"primitives":[
				{
					"attributes":{
						"POSITION":0,
						"NORMAL":1,
						"TEXCOORD_0":2,
						"TEXCOORD_1":3
					},
					"indices":4,
					"material":0
				},
				{
					"attributes":{
						"POSITION":5,
						"NORMAL":6,
						"TEXCOORD_0":7,
						"TEXCOORD_1":8
					},
					"indices":9,
					"material":1
				},
				{
					"attributes":{
						"POSITION":10,
						"NORMAL":11,
						"TEXCOORD_0":12,
						"TEXCOORD_1":13
					},
					"indices":9,
					"material":2
				}
			]
		}
	],
	"textures":[
		{
			"sampler":0,
			"source":0
		},
		{
			"sampler":0,
			"source":1
		},
		{
			"sampler":0,
			"source":2
		}
	],
	"images":[
		{
			"mimeType":"image/png",
			"name":"Chair_Base_color",
			"uri":"Chair_Base_color.png"
		},
		{
			"mimeType":"image/jpeg",
			"name":"Pillow_02_Base_Color",
			"uri":"Pillow_02_Base_Color.jpg"
		},
		{
			"mimeType":"image/jpeg",
			"name":"Pillow_01_Base_Color",
			"uri":"Pillow_01_Base_Color.jpg"
		}
	],
	"accessors":[
		{
			"bufferView":0,
			"componentType":5126,
			"count":4098,
			"max":[
				0.5984919667243958,
				0.8766347765922546,
				0.5984917283058167
			],
			"min":[
				-0.5984923243522644,
				-0.002972380956634879,
				-0.5984925031661987
			],
			"type":"VEC3"
		},
		{
			"bufferView":1,
			"componentType":5126,
			"count":4098,
			"type":"VEC3"
		},
		{
			"bufferView":2,
			"componentType":5126,
			"count":4098,
			"type":"VEC2"
		},
		{
			"bufferView":3,
			"componentType":5126,
			"count":4098,
			"type":"VEC2"
		},
		{
			"bufferView":4,
			"componentType":5123,
			"count":21984,
			"type":"SCALAR"
		},
		{
			"bufferView":5,
			"componentType":5126,
			"count":8450,
			"max":[
				0.16655440628528595,
				0.8579779863357544,
				0.24428534507751465
			],
			"min":[
				-0.33044618368148804,
				0.4398411512374878,
				-0.24381940066814423
			],
			"type":"VEC3"
		},
		{
			"bufferView":6,
			"componentType":5126,
			"count":8450,
			"type":"VEC3"
		},
		{
			"bufferView":7,
			"componentType":5126,
			"count":8450,
			"type":"VEC2"
		},
		{
			"bufferView":8,
			"componentType":5126,
			"count":8450,
			"type":"VEC2"
		},
		{
			"bufferView":9,
			"componentType":5123,
			"count":49152,
			"type":"SCALAR"
		},
		{
			"bufferView":10,
			"componentType":5126,
			"count":8450,
			"max":[
				0.5971858501434326,
				1.0162289142608643,
				0.22428244352340698
			],
			"min":[
				-0.1937093734741211,
				0.41345736384391785,
				-0.5958085060119629
			],
			"type":"VEC3"
		},
		{
			"bufferView":11,
			"componentType":5126,
			"count":8450,
			"type":"VEC3"
		},
		{
			"bufferView":12,
			"componentType":5126,
			"count":8450,
			"type":"VEC2"
		},
		{
			"bufferView":13,
			"componentType":5126,
			"count":8450,
			"type":"VEC2"
		}
	],
	"bufferViews":[
		{
			"buffer":0,
			"byteLength":49176,
			"byteOffset":0,
			"target":34962
		},
		{
			"buffer":0,
			"byteLength":49176,
			"byteOffset":49176,
			"target":34962
		},
		{
			"buffer":0,
			"byteLength":32784,
			"byteOffset":98352,
			"target":34962
		},
		{
			"buffer":0,
			"byteLength":32784,
			"byteOffset":131136,
			"target":34962
		},
		{
			"buffer":0,
			"byteLength":43968,
			"byteOffset":163920,
			"target":34963
		},
		{
			"buffer":0,
			"byteLength":101400,
			"byteOffset":207888,
			"target":34962
		},
		{
			"buffer":0,
			"byteLength":101400,
			"byteOffset":309288,
			"target":34962
		},
		{
			"buffer":0,
			"byteLength":67600,
			"byteOffset":410688,
			"target":34962
		},
		{
			"buffer":0,
			"byteLength":67600,
			"byteOffset":478288,
			"target":34962
		},
		{
			"buffer":0,
			"byteLength":98304,
			"byteOffset":545888,
			"target":34963
		},
		{
			"buffer":0,
			"byteLength":101400,
			"byteOffset":644192,
			"target":34962
		},
		{
			"buffer":0,
			"byteLength":101400,
			"byteOffset":745592,
			"target":34962
		},
		{
			"buffer":0,
			"byteLength":67600,
			"byteOffset":846992,
			"target":34962
		},
		{
			"buffer":0,
			"byteLength":67600,
			"byteOffset":914592,
			"target":34962
		}
	],
	"samplers":[
		{
			"magFilter":9729,
			"minFilter":9987
		}
	],
	"buffers":[
		{
			"byteLength":982192,
			"uri":"tvtest.bin"
		}
	]
}
