{
	"asset":{
		"generator":"Khronos glTF Blender I/O v5.0.21",
		"version":"2.0"
	},
	"scene":0,
	"scenes":[
		{
			"name":"Scene",
			"nodes":[
				0,
				1,
				2,
				3
			]
		}
	],
	"nodes":[
		{
			"mesh":0,
			"name":"iron"
		},
		{
			"mesh":1,
			"name":"Chair"
		},
		{
			"mesh":2,
			"name":"Pillow_02"
		},
		{
			"mesh":3,
			"name":"Pillow_01"
		}
	],
	"materials":[
		{
			"doubleSided":true,
			"name":"Chair",
			"normalTexture":{
				"index":0
			},
			"pbrMetallicRoughness":{
				"baseColorTexture":{
					"index":1
				},
				"metallicRoughnessTexture":{
					"index":2
				}
			}
		},
		{
			"doubleSided":true,
			"name":"Pillow_02",
			"normalTexture":{
				"index":3
			},
			"pbrMetallicRoughness":{
				"baseColorTexture":{
					"index":4
				},
				"metallicFactor":0,
				"metallicRoughnessTexture":{
					"index":5
				}
			}
		},
		{
			"doubleSided":true,
			"name":"Pillow_01",
			"normalTexture":{
				"index":6
			},
			"pbrMetallicRoughness":{
				"baseColorTexture":{
					"index":7
				},
				"metallicFactor":0,
				"metallicRoughnessTexture":{
					"index":8
				}
			}
		}
	],
	"meshes":[
		{
			"name":"BezierCircle",
			"primitives":[
				{
					"attributes":{
						"POSITION":0,
						"NORMAL":1,
						"TEXCOORD_0":2
					},
					"indices":3,
					"material":0
				}
			]
		},
		{
			"name":"Circle.001",
			"primitives":[
				{
					"attributes":{
						"POSITION":4,
						"NORMAL":5,
						"TEXCOORD_0":6
					},
					"indices":7,
					"material":0
				}
			]
		},
		{
			"name":"Plane.001",
			"primitives":[
				{
					"attributes":{
						"POSITION":8,
						"NORMAL":9,
						"TEXCOORD_0":10,
						"TEXCOORD_1":11
					},
					"indices":12,
					"material":1
				}
			]
		},
		{
			"name":"Plane.003",
			"primitives":[
				{
					"attributes":{
						"POSITION":13,
						"NORMAL":14,
						"TEXCOORD_0":15,
						"TEXCOORD_1":16
					},
					"indices":12,
					"material":2
				}
			]
		}
	],
	"textures":[
		{
			"sampler":0,
			"source":0
		},
		{
			"sampler":0,
			"source":1
		},
		{
			"sampler":0,
			"source":2
		},
		{
			"sampler":0,
			"source":3
		},
		{
			"sampler":0,
			"source":4
		},
		{
			"sampler":0,
			"source":5
		},
		{
			"sampler":0,
			"source":6
		},
		{
			"sampler":0,
			"source":7
		},
		{
			"sampler":0,
			"source":8
		}
	],
	"images":[
		{
			"mimeType":"image/png",
			"name":"Chair_Normal",
			"uri":"Chair_Normal.png"
		},
		{
			"mimeType":"image/png",
			"name":"Chair_Base_color",
			"uri":"Chair_Base_color.png"
		},
		{
			"mimeType":"image/png",
			"name":"Chair_Metallic-Chair_Roughness",
			"uri":"Chair_Metallic-Chair_Roughness.png"
		},
		{
			"mimeType":"image/jpeg",
			"name":"Pillow_02_Normal",
			"uri":"Pillow_02_Normal.jpg"
		},
		{
			"mimeType":"image/jpeg",
			"name":"Pillow_02_Base_Color",
			"uri":"Pillow_02_Base_Color.jpg"
		},
		{
			"mimeType":"image/png",
			"name":"Pillow_02_Roughness",
			"uri":"Pillow_02_Roughness.png"
		},
		{
			"mimeType":"image/jpeg",
			"name":"Pillow_01_Normal",
			"uri":"Pillow_01_Normal.jpg"
		},
		{
			"mimeType":"image/jpeg",
			"name":"Pillow_01_Base_Color",
			"uri":"Pillow_01_Base_Color.jpg"
		},
		{
			"mimeType":"image/png",
			"name":"Pillow_01_Roughness",
			"uri":"Pillow_01_Roughness.png"
		}
	],
	"accessors":[
		{
			"bufferView":0,
			"componentType":5126,
			"count":2152,
			"max":[
				0.5984919667243958,
				0.8766347765922546,
				0.5984917283058167
			],
			"min":[
				-0.5984923243522644,
				6.795826834604668e-08,
				-0.5984925031661987
			],
			"type":"VEC3"
		},
		{
			"bufferView":1,
			"componentType":5126,
			"count":2152,
			"type":"VEC3"
		},
		{
			"bufferView":2,
			"componentType":5126,
			"count":2152,
			"type":"VEC2"
		},
		{
			"bufferView":3,
			"componentType":5123,
			"count":11232,
			"type":"SCALAR"
		},
		{
			"bufferView":4,
			"componentType":5126,
			"count":1946,
			"max":[
				0.5474417805671692,
				0.4503919184207916,
				0.5474416017532349
			],
			"min":[
				-0.5474420785903931,
				-0.002972380956634879,
				-0.5474423170089722
			],
			"type":"VEC3"
		},
		{
			"bufferView":5,
			"componentType":5126,
			"count":1946,
			"type":"VEC3"
		},
		{
			"bufferView":6,
			"componentType":5126,
			"count":1946,
			"type":"VEC2"
		},
		{
			"bufferView":7,
			"componentType":5123,
			"count":10752,
			"type":"SCALAR"
		},
		{
			"bufferView":8,
			"componentType":5126,
			"count":8450,
			"max":[
				0.16655440628528595,
				0.8579779863357544,
				0.24428534507751465
			],
			"min":[
				-0.33044618368148804,
				0.4398411512374878,
				-0.24381940066814423
			],
			"type":"VEC3"
		},
		{
			"bufferView":9,
			"componentType":5126,
			"count":8450,
			"type":"VEC3"
		},
		{
			"bufferView":10,
			"componentType":5126,
			"count":8450,
			"type":"VEC2"
		},
		{
			"bufferView":11,
			"componentType":5126,
			"count":8450,
			"type":"VEC2"
		},
		{
			"bufferView":12,
			"componentType":5123,
			"count":49152,
			"type":"SCALAR"
		},
		{
			"bufferView":13,
			"componentType":5126,
			"count":8450,
			"max":[
				0.5971858501434326,
				1.0162289142608643,
				0.22428244352340698
			],
			"min":[
				-0.1937093734741211,
				0.41345736384391785,
				-0.5958085060119629
			],
			"type":"VEC3"
		},
		{
			"bufferView":14,
			"componentType":5126,
			"count":8450,
			"type":"VEC3"
		},
		{
			"bufferView":15,
			"componentType":5126,
			"count":8450,
			"type":"VEC2"
		},
		{
			"bufferView":16,
			"componentType":5126,
			"count":8450,
			"type":"VEC2"
		}
	],
	"bufferViews":[
		{
			"buffer":0,
			"byteLength":25824,
			"byteOffset":0,
			"target":34962
		},
		{
			"buffer":0,
			"byteLength":25824,
			"byteOffset":25824,
			"target":34962
		},
		{
			"buffer":0,
			"byteLength":17216,
			"byteOffset":51648,
			"target":34962
		},
		{
			"buffer":0,
			"byteLength":22464,
			"byteOffset":68864,
			"target":34963
		},
		{
			"buffer":0,
			"byteLength":23352,
			"byteOffset":91328,
			"target":34962
		},
		{
			"buffer":0,
			"byteLength":23352,
			"byteOffset":114680,
			"target":34962
		},
		{
			"buffer":0,
			"byteLength":15568,
			"byteOffset":138032,
			"target":34962
		},
		{
			"buffer":0,
			"byteLength":21504,
			"byteOffset":153600,
			"target":34963
		},
		{
			"buffer":0,
			"byteLength":101400,
			"byteOffset":175104,
			"target":34962
		},
		{
			"buffer":0,
			"byteLength":101400,
			"byteOffset":276504,
			"target":34962
		},
		{
			"buffer":0,
			"byteLength":67600,
			"byteOffset":377904,
			"target":34962
		},
		{
			"buffer":0,
			"byteLength":67600,
			"byteOffset":445504,
			"target":34962
		},
		{
			"buffer":0,
			"byteLength":98304,
			"byteOffset":513104,
			"target":34963
		},
		{
			"buffer":0,
			"byteLength":101400,
			"byteOffset":611408,
			"target":34962
		},
		{
			"buffer":0,
			"byteLength":101400,
			"byteOffset":712808,
			"target":34962
		},
		{
			"buffer":0,
			"byteLength":67600,
			"byteOffset":814208,
			"target":34962
		},
		{
			"buffer":0,
			"byteLength":67600,
			"byteOffset":881808,
			"target":34962
		}
	],
	"samplers":[
		{
			"magFilter":9729,
			"minFilter":9987
		}
	],
	"buffers":[
		{
			"byteLength":949408,
			"uri":"tvtest.bin"
		}
	]
}
